<svg version="1.1" viewBox="0.0 0.0 960.0 720.0" fill="none" stroke="none" stroke-linecap="square" stroke-miterlimit="10" xmlns:xlink="http://www.w3.org/1999/xlink" xmlns="http://www.w3.org/2000/svg"><clipPath id="p.0"><path d="m0 0l960.0 0l0 720.0l-960.0 0l0 -720.0z" clip-rule="nonzero"/></clipPath><g clip-path="url(#p.0)"><path fill="#000000" fill-opacity="0.0" d="m0 0l960.0 0l0 720.0l-960.0 0z" fill-rule="evenodd"/><path fill="#000000" d="m260.01376 303.42783l-156.01376 -141.39633l157.0611 -139.53543l-1.0473328 40.93176l-107.84784 98.60367l108.89517 100.46457z" fill-rule="evenodd"/><path stroke="#000000" stroke-width="1.0" stroke-linejoin="round" stroke-linecap="butt" d="m260.01376 303.42783l-156.01376 -141.39633l157.0611 -139.53543l-1.0473328 40.93176l-107.84784 98.60367l108.89517 100.46457z" fill-rule="evenodd"/><path fill="#000000" d="m156.01378 303.42783l-156.01378 -141.39633l157.06108 -139.53543l-1.0473022 40.93176l-107.84785 98.60367l108.89515 100.46457z" fill-rule="evenodd"/><path stroke="#000000" stroke-width="1.0" stroke-linejoin="round" stroke-linecap="butt" d="m156.01378 303.42783l-156.01378 -141.39633l157.06108 -139.53543l-1.0473022 40.93176l-107.84785 98.60367l108.89515 100.46457z" fill-rule="evenodd"/></g></svg>