<svg version="1.1" viewBox="0.0 0.0 960.0 720.0" fill="none" stroke="none" stroke-linecap="square"
     stroke-miterlimit="10" xmlns:xlink="http://www.w3.org/1999/xlink" xmlns="http://www.w3.org/2000/svg">
  <clipPath id="p.0">
    <path d="m0 0l960.0 0l0 720.0l-960.0 0l0 -720.0z" clip-rule="nonzero"/>
  </clipPath>
  <g clip-path="url(#p.0)">
    <path fill="#000000" fill-opacity="0.0" d="m0 0l960.0 0l0 720.0l-960.0 0z" fill-rule="evenodd"/>
    <path fill="#000000"
          d="m956.60803 718.49603l-573.71375 -362.3846l577.56506 -357.61536l-3.8512573 104.90401l-396.59186 252.71136l400.4431 257.48062z"
          fill-rule="evenodd"/>
    <path stroke="#000000" stroke-width="1.0" stroke-linejoin="round" stroke-linecap="butt"
          d="m956.60803 718.49603l-573.71375 -362.3846l577.56506 -357.61536l-3.8512573 104.90401l-396.59186 252.71136l400.4431 257.48062z"
          fill-rule="evenodd"/>
    <path fill="#000000"
          d="m574.16724 718.49603l-573.71375 -362.3846l577.56506 -357.61536l-3.8513184 104.90401l-396.59186 252.71136l400.44318 257.48062z"
          fill-rule="evenodd"/>
    <path stroke="#000000" stroke-width="1.0" stroke-linejoin="round" stroke-linecap="butt"
          d="m574.16724 718.49603l-573.71375 -362.3846l577.56506 -357.61536l-3.8513184 104.90401l-396.59186 252.71136l400.44318 257.48062z"
          fill-rule="evenodd"/>
  </g>
</svg>
